<?xml version="1.0" encoding="utf-8"?>
<!-- Generator: Adobe Illustrator 25.3.1, SVG Export Plug-In . SVG Version: 6.00 Build 0)  -->
<svg version="1.1" id="Layer_1" xmlns="http://www.w3.org/2000/svg" xmlns:xlink="http://www.w3.org/1999/xlink" x="0px" y="0px"
	 viewBox="0 0 500 218" style="enable-background:new 0 0 500 218;" xml:space="preserve">
<style type="text/css">
	.st0{fill:#FFFFFF;}
</style>
<g>
	<path class="st0" d="M308.6,46.2c3-2.1,3.5-5.4,3.5-5.4c-3.8,3.6-13.6,2.7-13.6,2.7s0,0,0,0c-1.4-0.2-2.9-0.3-4.4-0.3
		c-6.5,0.1-11.5,2-14.9,5.7v-0.3v-1.2v-4.1c-13.4-7.3-13.4-14.6-13.4-14.6c4.3-0.2,8.8,3,8.8,3C274.1,12.7,262,0,262,0v37.9v0.5V47
		V218c16.1-12,17.2-36.3,17.2-41.1v-0.8v-10.9c0,0,0.1-5.1-9.3-5.1c0,0,4.2-2.1,9.3-0.9v-17.7c3.2,2,6.3,1.2,6.3,1.2
		c-5.7-3-6.2-8.5-6.3-10.2v-1.8c0-1.9-0.4-3.9-1.3-5.6c-4.4-8.7-10.5-11.7-10.5-11.7c5.5,1.3,9,4.6,10.6,6.7
		c1.3,1.6,2.8,2.8,4.6,3.7c3.6,1.8,7.6,2.7,11.8,2.7c21.7,0,32.5-13.5,32.5-40.4C326.9,65,320.8,51.7,308.6,46.2z M310,88.7
		c-0.2,2.4-1.2,7.6-5.1,8.4c0,0,2.3,0.3,4.3-0.8c-1.9,9.9-6.7,14.9-14.5,14.9c-6.1,0.1-11.1-2.4-15.1-7.6v-18
		c2.8,1.7,5.3,1.4,5.3,1.4c-5.2-2.1-5.3-11.2-5.3-11.2v-0.5c0-2-0.8-9.3-8.8-12.7c0,0,5-0.4,9.5,4.3c3.1-4.6,7.8-7,13.9-7
		c10.6,0.6,15.9,9.3,15.9,26C310,86.8,310,87.8,310,88.7z"/>
	<path class="st0" d="M170.1,50.4c-5.8-4.8-12.9-7.2-21.4-7.2c-10.3,0.3-19.3,3.2-27.1,8.8l8.6,13.2c5.6-4.1,12-6.1,19-5.8
		c8.2,0.8,12.2,5.1,12,13c-4.3-1.2-9-1.8-14-1.8c-9-0.1-16.1,2.5-21.4,7.9c-5.3,5.4-7.9,12-7.9,19.9c0,9.2,2.8,16.2,8.5,21
		c5.7,4.8,12.9,7.3,21.5,7.4c1.7,0,3.4-0.2,5-0.6c4.3-1,8.1-3.5,11.1-6.7c1.9-2,5.1-4.6,9.8-5.7c0,0-6.8,3.4-11.2,13.2c0,0,0,0,0,0
		s0,0.1-0.1,0.2c0,0.1-0.1,0.2-0.1,0.3c-0.8,1.6-3.8,6.4-13.5,7.8c0,0,6.3,3,13.2-1.2v14c5.1-1.2,9.3,0.9,9.3,0.9
		c-9.4,0-9.3,5.1-9.3,5.1h0v3.7v4.3c0,0,0.2,16.9,16.7,25.7V71.4C178.9,62.2,175.9,55.2,170.1,50.4z M153.2,111.2
		c-0.1,0-0.1,0-0.2,0.1c-1.7,0.6-3.5,0.9-5.3,0.9c-4.3,0-7.8-1.5-10.3-4.4c-0.8-0.9-1.5-1.9-2.1-2.9c2.3,0.4,4.4-0.2,4.4-0.2
		c-6.7-1.8-6.1-7.8-6-8.6c0.4-2.2,1.5-4.2,3.4-6c2-2,4.5-3.2,7.3-3.6c-1.6,3.1-1.2,6.7-1.2,6.7c1.3-6.5,8.1-6.5,11-6.2
		c2.2,0.3,4.4,0.8,6.6,1.4v10.2c0,3.9-2.8,4.2-3,4.2c2.2,0.5,5,0.5,7.4-2.1C165.1,100.6,161.1,108.4,153.2,111.2z"/>
	<path class="st0" d="M60.9,101.6v-2.7c0,0-0.2-8-8.1-11.9c0,0,3.9-1.2,8.1,1.3V71.4c-0.1-9.2-3.1-16.2-8.9-21
		c-5.8-4.8-12.9-7.2-21.4-7.2c-10.3,0.3-19.3,3.2-27.1,8.8l8.6,13.2c5.6-4.1,12-6.1,19-5.8c8.2,0.8,12.2,5.1,12,13
		c-4.3-1.2-9-1.8-14-1.8c-9-0.1-16.1,2.5-21.4,7.9C2.6,83.7,0,90.3,0,98.2c0,9.2,2.8,16.2,8.5,21c5.7,4.8,12.9,7.3,21.5,7.4
		c1.7,0,3.4-0.2,5-0.6c2.9-0.6,5.6-2,7.9-3.8c2-1.7,3.7-4.2,4.5-7.6c0,0-3.2,19,13.4,27.9v-31.3c2.3,1.4,4.7,1.2,4.7,1.2
		C61.1,110.1,60.9,101.6,60.9,101.6z M35.1,111.2c-0.1,0-0.1,0-0.2,0.1c-1.7,0.6-3.5,0.9-5.3,0.9c-4.3,0-7.8-1.5-10.3-4.4
		c-0.8-0.9-1.5-1.9-2.1-2.9c2.3,0.4,4.4-0.2,4.4-0.2c-6.7-1.8-6.1-7.8-6-8.6c0.4-2.2,1.5-4.2,3.4-6c2-2,4.5-3.2,7.3-3.6
		c-1.6,3.1-1.2,6.7-1.2,6.7c1.3-6.5,8.1-6.5,11-6.2c2.2,0.3,4.4,0.8,6.6,1.4v10.2c0,3.9-2.8,4.2-3,4.2c2.2,0.5,5,0.5,7.4-2.1
		C47.1,100.6,43,108.4,35.1,111.2z"/>
	<path class="st0" d="M91.7,49.7c-2.9-4.3-7.1-6.5-12.7-6.5c-3.3,0.1-6.3,0.7-9.1,2V64l0.2,0.5c3.2-3.2,6.6-4.8,9.9-4.7
		c6.3,0.2,10,4.1,11.2,11.6c0.2,1.3,0.1,5.5-5.5,7.2c0,0,3.1,0.8,5.9-0.2v0.8c0,0-0.2,2.6-2.8,3c0,0,1.3,0.5,2.8,0.7v18
		c3-1.2,6.4-0.9,6.4-0.9c-2.7,0.8-4.2,2.5-5.1,4.1c-0.9,1.5-1.2,3.2-1.2,5v4.3v12.2c0,0,0.4,30.5,17.5,39.5V43.9H91.7V49.7z"/>
	<path class="st0" d="M249.2,28.7c0,0,0,7.3-13.4,14.6v4.1v1.2v0.3c-3.5-3.7-8.4-5.6-14.9-5.7c-1.5,0-3,0.1-4.4,0.3c0,0,0,0,0,0
		s-9.8,0.9-13.6-2.7c0,0,0.5,3.4,3.5,5.4C194.1,51.7,188,65,188,86c0,27,10.8,40.4,32.5,40.4c4.2,0,8.2-0.9,11.8-2.7
		c1.8-0.9,3.4-2.2,4.6-3.7c1.7-2.1,5.1-5.4,10.6-6.7c0,0-6.1,3-10.5,11.7c-0.9,1.7-1.3,3.7-1.3,5.6v1.8c0,1.6-0.6,7.2-6.3,10.2
		c0,0,3,0.8,6.3-1.2v17.7c5.1-1.2,9.3,0.9,9.3,0.9c-9.4,0-9.3,5.1-9.3,5.1v10.9v0.8c0.1,4.7,1.1,29.1,17.2,41.1V47v-8.7v-0.5V0
		c0,0-12.1,12.7-12.6,31.7C240.4,31.7,244.8,28.5,249.2,28.7z M235.4,75.2v0.5c0,0-0.1,9-5.3,11.2c0,0,2.5,0.3,5.3-1.4v18
		c-4,5.2-9,7.7-15.1,7.6c-7.8-0.1-12.6-5.1-14.5-14.9c2,1.2,4.3,0.8,4.3,0.8c-3.9-0.8-4.9-6.1-5.1-8.4c0-0.9-0.1-1.8-0.1-2.8
		c0-16.7,5.3-25.3,15.9-26c6.2,0,10.8,2.3,13.9,7c4.6-4.7,9.5-4.3,9.5-4.3C236.2,65.9,235.5,73.2,235.4,75.2z"/>
	<path class="st0" d="M371.9,43.2c-7.9,0-14.2,2-19,6v-5H336v71.8c0,0-0.2,17.2-6.7,21.5c0,0,3.3,1,6.7-0.4v1.4v3.3v3.7v42.2
		c16.5-8.7,17.2-25.7,17.2-25.7v-4.3v-3.7h0c0,0,0.1-5.1-9.3-5.1c0,0,4.2-2.1,9.3-0.9v-6.3h0v-3.2V75.8c0,0,0.1-7.7,10.9-8.7
		c0,0-4.9-1.9-9.2-1c0.5-1.1,1.2-2.1,1.9-2.9c1.9-2.1,4.5-3.4,7.8-3.9c2.6-0.4,5.3,0.1,7.4,1.7c1.4,1.1,2.8,2.8,3.3,5.4
		c0,0,1.1-2,1.5-4.3c0.6,0.5,1.2,1,1.7,1.6c2.9,3.3,4.3,7,4.1,11.1v12.8c0,0,0.1,11,5.1,14.3c0,0-2.8,0.3-5.1-1.7V126h16.7V74.5
		c0-8.3-2.3-15.6-6.8-21.9C387.9,46.3,381.1,43.2,371.9,43.2z"/>
	<path class="st0" d="M424.7,18.5c0,0,0.4-1.3-0.1-2.1c0,0,0,0.8-0.6,1.3c-0.3-0.3-0.5-0.7-0.9-1c-1.8-1.8-3.8-2.7-6.1-2.7
		c-2.3,0-4.3,0.9-6.1,2.7c-0.4,0.4-0.8,0.9-1.1,1.4c0,0-0.1,0.1-0.1,0.2c0,0,0,0.1,0,0.1c-0.5,1-1.7,3.8,1.2,6.1
		c0,0-1.3,0.2-2.5-0.2c0.3,1.7,1.1,3.3,2.5,4.7c1.8,1.8,3.8,2.7,6.1,2.7c0.2,0,0.3,0,0.5,0c0,0,0,0,0,0s4.7,0,8.3-4.5
		c0,0-0.5,0.2-1.2,0.1c0.3-0.5,0.6-1.1,0.7-1.6c0,0,0,0,0,0c0,0,1.8-6-0.4-10.1C425.1,15.4,425.1,17.9,424.7,18.5z"/>
	<path class="st0" d="M408.3,56.7v4.4v1.4c0.1,2.5,0.7,7.7,4.1,10.4c0,0-2.1,0.4-4.1-0.9v9.8c0,0,0,12.3-4.8,15.5
		c0,0,2.9,0.3,4.8-1.6v0.8c0,0.7-0.4,2.7-3.2,3.7c0,0,1.5,0.9,3.2,0.4v64.5c17.2-9,17.7-39.5,17.7-39.5v-12.2v-4.3
		c0-1.7-0.4-3.5-1.2-5c-0.9-1.6-2.5-3.3-5.1-4.1c0,0,3.4-0.3,6.4,0.9V83V45.1h-17.7V56.7z"/>
	<path class="st0" d="M482.8,22.6v26.3c-3.5-3.7-8.4-5.6-14.9-5.7C446,43.6,435,57.9,435,86c0,27,10.8,40.4,32.5,40.4
		c4.7,0,9-1.1,12.9-3.3c1.3-0.7,2.4-1.8,3.4-3c2.7-3.1,6.3-3.7,6.3-3.7c-4.4,2.5-6.3,6.7-7,8.7c-0.2,0.7-0.3,1.4-0.3,2.1v15.2
		c17.2-9,17.2-40.8,17.2-40.8V13.9L482.8,22.6z M475.7,109.4c-0.4,0.2-0.7,0.3-1.1,0.5c0,0,0,0,0,0c-1.1,0.5-2.3,0.8-3.5,1.1
		c-0.7,0.1-1.1,0.2-1.1,0.2l0,0c-0.9,0.1-1.8,0.2-2.7,0.2c-10-0.1-15.1-8.3-15.4-24.5c2.8,2.5,6.8,1.8,6.8,1.8
		c-6.2-2.3-6.6-8-6.2-11.2c1.6-11.1,6.7-16.9,15.4-17.4c5.8,0,10.3,2.1,13.4,6.2c-4.2-0.8-7.6,1-7.6,1c7.9,1.9,8.8,6.6,8.8,8.1v14.4
		c0,1.7-0.3,11-6,12.8c0,0,6.8-1.6,9.5-7C484.9,103.5,479.9,107.4,475.7,109.4z"/>
</g>
</svg>
