<svg id="Layer_1" enable-background="new 0 0 512 512" height="15vh" viewBox="0 0 512 512" width="15vw" xmlns="http://www.w3.org/2000/svg"><path d="m180 133c0-11.046 8.954-20 20-20h192c26.536 1.056 26.516 38.953 0 40h-192c-11.046 0-20-8.954-20-20zm68 227h-48c-26.536 1.056-26.516 38.953 0 40h48c26.536-1.056 26.516-38.953 0-40zm-48-87h107c26.536-1.056 26.516-38.953 0-40h-107c-26.536 1.056-26.516 38.953 0 40zm-80-40c-11.046 0-20 8.954-20 20 1.054 26.53 38.951 26.522 40 0 0-11.046-8.954-20-20-20zm392 199.169c.009 30.856-23.709 60.585-56.099 59.831h-41.901c-1.103 26.539-38.907 26.519-40 0h-42.901c-32.394.754-56.108-28.98-56.098-59.831 0-8.612 4.963-16.064 13.12-18.783 2.198-.899 15.755-7.077 15.755-22.687v-19.699c0-42.578 30.102-78.654 70.125-87.763v-13.237c1.056-26.536 38.953-26.516 40 0v13.471c39.523 9.477 69.125 45.307 69.125 87.529v19.699c0 15.61 13.557 21.788 15.755 22.687 8.156 2.718 13.119 10.171 13.119 18.783zm-42.485 10.259c-13.239-9.737-26.39-26.604-26.39-51.729v-19.699c0-27.193-22.092-49.612-49.246-49.976-.126-.001-.253-.004-.379-.008-.126.004-.253.007-.379.008-27.154.364-49.246 22.783-49.246 49.976v19.699c0 25.125-13.15 41.992-26.39 51.729 2.159 4.84 6.175 9.572 13.613 9.572h124.803c7.439 0 11.454-4.732 13.614-9.572zm-349.515-329.428c-11.046 0-20 8.954-20 20 1.054 26.53 38.951 26.522 40 0 0-11.046-8.954-20-20-20zm0 247c-11.046 0-20 8.954-20 20 1.054 26.53 38.951 26.522 40 0 0-11.046-8.954-20-20-20zm312-360h-352c-44.112 0-80 35.888-80 80v352c0 44.112 35.888 80 80 80h152c26.536-1.056 26.516-38.953 0-40h-152c-22.056 0-40-17.944-40-40v-352c0-22.056 17.944-40 40-40h352c22.056 0 40 17.944 40 40v180c1.056 26.536 38.953 26.516 40 0v-180c0-44.112-35.888-80-80-80z"/></svg>