<svg id="Capa_1" enable-background="new 0 0 514.16 514.16" height="15vh" viewBox="0 0 514.16 514.16" width="15vw" xmlns="http://www.w3.org/2000/svg"><path d="m424.533 238.239 37.102-32.693 24.654 5.255c6.02 1.284 12.184.146 17.352-3.206s8.722-8.515 10.005-14.537c1.284-6.023.146-12.187-3.205-17.354-3.352-5.167-8.515-8.72-14.538-10.003l-35.999-7.674c-7.104-1.516-14.603.447-20.051 5.251l-41.364 36.449-50.896 11.357 50.729-45.858c2.664-2.408 4.755-5.45 6.048-8.798l29.244-75.728 40.911-38.799c9.224-8.748 9.611-23.371.864-32.596-8.748-9.225-23.37-9.612-32.598-.864l-44.684 42.377c-2.467 2.341-4.417 5.252-5.641 8.421l-29.141 75.457-39.854 36.028 11.604-27.308c2.039-4.798 3.231-9.87 3.543-15.074 1.505-25.119-9.802-48.874-30.245-63.545l-11.229-8.058c-3.424-2.458-7.883-2.503-11.358-.12-3.476 2.385-5.036 6.563-3.974 10.645l13.444 51.594c.563 2.161.319 4.449-.688 6.443l-5.458 10.812c-.099-.564-.2-1.128-.319-1.69l-4.063-19.136c-.823-3.88-3.871-6.875-7.766-7.629-3.89-.754-7.84.885-10.052 4.175l-9.833 14.62-9.833-14.621c-2.214-3.291-6.161-4.93-10.053-4.175-3.893.754-6.941 3.749-7.765 7.628l-4.063 19.137c-.119.562-.22 1.127-.319 1.691l-5.459-10.813c-1.006-1.994-1.25-4.282-.687-6.443l13.444-51.595c1.063-4.08-.497-8.257-3.972-10.643-3.476-2.385-7.935-2.339-11.359.119l-11.229 8.058c-20.443 14.671-31.75 38.427-30.246 63.545.312 5.204 1.504 10.275 3.543 15.074l11.604 27.308-39.854-36.027-29.14-75.456c-1.223-3.168-3.173-6.081-5.643-8.424l-44.679-42.376c-9.227-8.746-23.849-8.359-32.596.865-8.748 9.225-8.361 23.847.863 32.596l40.912 38.799 8.579 22.216c1.493 3.864 5.835 5.785 9.699 4.294 3.864-1.493 5.787-5.834 4.294-9.699l-7.011-18.154 13.77-9.074 25.205 65.268-14.342 7.594-6.108-15.816c-1.493-3.865-5.835-5.787-9.698-4.295-3.864 1.492-5.787 5.834-4.295 9.698l9.151 23.695c1.293 3.349 3.385 6.391 6.048 8.797l50.729 45.858-50.897-11.357-41.362-36.448c-5.451-4.805-12.947-6.771-20.051-5.252l-36 7.674c-6.023 1.284-11.187 4.837-14.538 10.004-3.351 5.167-4.489 11.33-3.206 17.353 1.284 6.023 4.837 11.187 10.005 14.538 5.167 3.351 11.329 4.488 17.352 3.206l24.654-5.255 37.102 32.694c2.907 2.561 6.441 4.36 10.222 5.204l48.339 10.786-70.451 29.834c-4.776 2.022-8.773 5.645-11.256 10.201l-30.554 56.083-20.587 14.599c-5.024 3.562-8.36 8.868-9.394 14.939s.359 12.182 3.922 17.206c4.316 6.087 11.353 9.721 18.82 9.721h.003c4.793 0 9.4-1.469 13.322-4.25l24.944-17.688c2.851-2.022 5.241-4.712 6.91-7.778l29.26-53.708 69.305-29.348-76.889 72.991c-4.565 4.333-7.183 10.428-7.183 16.722v63.727l-13.47 32.712c-2.345 5.695-2.332 11.962.037 17.647s6.81 10.108 12.504 12.453c2.805 1.155 5.757 1.741 8.772 1.741h.002c9.382 0 17.753-5.606 21.325-14.282l15.207-36.929c1.152-2.799 1.737-5.752 1.737-8.779v-58.383l79.236-75.219c.513.513 1.045 1.008 1.576 1.503-17.163 16.519-27.565 42.699-27.565 70.427 0 11.493 1.711 22.684 5.086 33.263 1.017 3.188 3.966 5.223 7.143 5.223.755 0 1.523-.115 2.281-.357 3.946-1.259 6.125-5.479 4.866-9.424-2.904-9.104-4.376-18.761-4.376-28.705 0-24.85 9.498-48.007 24.998-61.492 8.479 4.579 18.174 7.184 28.467 7.184h1.788c10.293 0 19.989-2.604 28.467-7.184 15.5 13.486 24.998 36.643 24.998 61.492 0 40.364-24.386 73.202-54.359 73.202-12.979 0-25.578-6.345-35.474-17.867-2.698-3.143-7.434-3.501-10.576-.803-3.142 2.699-3.501 7.434-.803 10.576 12.792 14.892 29.431 23.093 46.853 23.093 38.245 0 69.359-39.567 69.359-88.202 0-27.728-10.403-53.908-27.566-70.427.532-.495 1.063-.99 1.576-1.503l79.236 75.219v58.384c0 3.025.584 5.978 1.737 8.779l15.206 36.928c3.571 8.678 11.943 14.284 21.326 14.283 3.017 0 5.968-.585 8.772-1.741 5.695-2.345 10.137-6.767 12.506-12.453 2.368-5.685 2.382-11.952.036-17.647l-13.47-32.711v-63.727c0-6.295-2.618-12.39-7.183-16.722l-76.89-72.992 69.305 29.349 29.258 53.705c1.669 3.068 4.06 5.759 6.912 7.782l24.945 17.688c3.922 2.779 8.527 4.249 13.318 4.249h.004c7.468 0 14.504-3.634 18.822-9.721 3.563-5.024 4.955-11.135 3.921-17.206-1.033-6.072-4.369-11.377-9.394-14.939l-20.588-14.599-30.553-56.084c-2.482-4.556-6.48-8.179-11.256-10.201l-18.794-7.959c-3.814-1.614-8.216.167-9.831 3.981s.167 8.216 3.981 9.831l10.578 4.48-8.873 13.742-45.612-19.315 6.866-14.592 7.481 3.168c.955.404 1.946.596 2.922.596 2.921 0 5.698-1.718 6.909-4.577 1.615-3.814-.167-8.216-3.981-9.831l-22.097-9.358 48.341-10.786c3.785-.843 7.319-2.643 10.225-5.204zm-374.878-218.612c3.056-3.223 8.167-3.358 11.391-.302l40.548 38.454-13.818 9.105-37.819-35.867c-3.223-3.057-3.359-8.167-.302-11.39zm448.201 164.239c1.171 1.806 1.568 3.959 1.12 6.064-.448 2.104-1.69 3.908-3.496 5.079-1.807 1.171-3.96 1.57-6.063 1.121l-24.675-5.26-4.146-17.361 32.18 6.86c2.104.451 3.909 1.692 5.08 3.497zm-51.682-6.166 4.238 17.743-33.725 29.718-5.894-16.284zm-48.979 37.684 5.529 15.277-84.649 18.888v-11.783l6.944-6.277zm-87.504 91.146c2.918-4.918 5.157-10.283 6.582-15.969l39.546 37.54-10.941 11.831zm-10.955-156.194 13.829 7.704-9.348 21.998c-3.936-4.502-8.524-8.417-13.627-11.586zm154.377-131.01c3.226-3.057 8.336-2.922 11.392.301 3.057 3.224 2.922 8.333-.302 11.391l-37.819 35.867-13.817-9.105zm-48.831 50.959 13.771 9.074-24.634 63.787-14.343-7.595zm-33.469 77.864 15.154 8.024-67.942 61.417c-.208-6.482-1.432-12.71-3.543-18.521zm-47.165-20.704c-.209 3.488-1.009 6.888-2.375 10.105l-2.808 6.607-12.963-7.222 2.46-4.873c2.653-5.256 3.297-11.289 1.813-16.986l-9.875-37.898c16.063 11.666 24.936 30.431 23.748 50.267zm-83.608 10.093 1.54-7.254 6.237 9.273c2.077 3.089 5.54 4.934 9.263 4.934h.001c3.723 0 7.186-1.844 9.264-4.934l6.236-9.273 1.54 7.254c1.682 7.915.468 16.168-3.408 23.267-4.108-.89-8.367-1.371-12.738-1.371h-1.788c-4.371 0-8.63.481-12.738 1.371-3.877-7.098-5.09-15.35-3.409-23.267zm-70.757 202.396-10.941-11.832 39.546-37.541c1.425 5.687 3.664 11.052 6.582 15.97zm41.661-159.896-9.348-21.998 13.828-7.704 9.146 18.117c-5.102 3.169-9.691 7.083-13.626 11.585zm3.317-102.86-9.875 37.896c-1.485 5.698-.842 11.731 1.812 16.986l2.46 4.873-12.963 7.222-2.808-6.607c-1.367-3.217-2.166-6.617-2.375-10.104-1.187-19.835 7.685-38.6 23.749-50.266zm-14.584 121.893c-2.111 5.811-3.335 12.039-3.543 18.52l-67.941-61.418 15.153-8.024zm-3.592 38.695v11.783l-84.649-18.888 5.529-15.277 72.177 16.105zm-171.341-41.635c-2.104.448-4.257.05-6.063-1.121s-3.047-2.975-3.496-5.08-.051-4.258 1.12-6.064c1.171-1.805 2.975-3.047 5.08-3.496l32.18-6.86-4.146 17.36zm39.005-.688 4.237-17.744 35.381 31.178-5.893 16.284zm132.336 69.475v2.819l-35.975 15.234-6.866-14.592 20.137-8.528zm-95.41 43.222-8.873-13.742 47.619-20.165 6.866 14.592zm-67.336 82.188c-1.372.973-2.978 1.486-4.647 1.486h-.001c-2.615 0-5.077-1.27-6.586-3.398-1.245-1.755-1.731-3.891-1.37-6.012s1.527-3.975 3.283-5.22l17.675-12.533 13.971 9.847zm31.384-27.796-13.259-9.345 27.66-50.772 9.953 15.415zm54.751 81.234-16.114-1.594v-52.706l16.114 7.285zm-15.813 48.276c-1.249 3.033-4.175 4.993-7.455 4.993h-.001c-1.047 0-2.077-.206-3.062-.611-1.99-.819-3.542-2.365-4.37-4.352-.828-1.986-.832-4.177-.013-6.167l11.911-28.927 16.745 1.656zm20.756-109.518-15.854-7.168 38.899-36.927 10.941 11.832zm131.769-61.462c-24.869 0-45.101-20.232-45.101-45.101v-56.426c0-24.869 20.232-45.101 45.101-45.101h1.788c24.869 0 45.101 20.232 45.101 45.101v56.426c0 24.869-20.232 45.101-45.101 45.101zm99.571 29.199 10.941-11.831 38.898 36.926-15.854 7.168zm55.043 91.911-16.114 1.594v-47.014l16.114-7.286zm14.587 49.9c-.827 1.986-2.38 3.532-4.37 4.352-.984.405-2.015.611-3.063.611-3.279 0-6.206-1.959-7.455-4.994l-13.756-33.406 16.745-1.656 11.911 28.927c.821 1.99.816 4.18-.012 6.166zm64.757-114.888c1.756 1.245 2.921 3.099 3.282 5.22s-.125 4.256-1.369 6.011c-1.51 2.128-3.972 3.399-6.588 3.399-1.668 0-3.275-.514-4.647-1.486l-22.325-15.831 13.972-9.847zm-27.447-23.997-13.259 9.345-24.353-44.702 9.953-15.415zm-101.781-84.808-6.866 14.592-35.976-15.235v-2.819l22.704-5.066z"/></svg>